<svg width="500" height="500" viewBox="0 0 500 500" fill="none" xmlns="http://www.w3.org/2000/svg">
<rect width="500" height="500" fill="#151812"/>
<g opacity="0.5" filter="url(#filter0_ddd_3_8)">
<path d="M71 141.257V131.006H224.772V141.257H71ZM71 161.76V151.509H224.772V161.76H71ZM71 182.263V172.012H224.772V182.263H183.766V366.79H173.515V182.263H163.263V366.79H153.012V182.263H142.76V366.79H132.509V182.263H122.257V366.79H112.006V182.263H71Z" fill="#FFF8E5"/>
<path d="M327.287 223.269C319.979 223.269 314.71 221.419 311.483 217.717C308.256 213.92 306.642 208.936 306.642 202.766C306.642 189.098 316.846 182.263 337.254 182.263C356.428 182.263 370.856 185.111 380.538 190.806L372.28 197.071C365.636 194.034 353.96 192.515 337.254 192.515C329.091 192.515 323.586 193.417 320.738 195.22C317.985 197.024 316.609 199.539 316.609 202.766C316.609 205.994 317.368 208.509 318.887 210.313C320.406 212.116 323.206 213.018 327.287 213.018H344.943C357.757 213.018 369.29 215.201 379.542 219.568C389.888 223.934 398.383 229.914 405.028 237.508C411.672 245.006 416.751 253.692 420.263 263.564C423.775 273.34 425.531 283.829 425.531 295.03C425.531 304.142 424.25 312.78 421.687 320.943C419.124 329.107 415.232 336.605 410.011 343.44C404.886 350.274 398.668 356.207 391.359 361.238C384.145 366.173 375.507 370.018 365.446 372.771C355.479 375.618 344.658 377.042 332.983 377.042C314.663 377.042 297.482 374.242 281.44 368.641C265.494 363.136 252.205 355.4 241.574 345.433L249.832 339.311C259.514 348.044 271.616 354.83 286.139 359.671C300.757 364.417 316.372 366.79 332.983 366.79C345.987 366.79 357.71 364.939 368.151 361.238C378.687 357.441 387.325 352.267 394.065 345.718C400.899 339.168 406.12 331.575 409.727 322.937C413.429 314.299 415.279 304.997 415.279 295.03C415.279 281.836 412.622 269.923 407.306 259.292C401.991 248.566 393.875 239.881 382.959 233.236C372.138 226.592 359.323 223.269 344.516 223.269H327.287ZM343.519 233.521C362.788 233.521 377.833 239.406 388.654 251.176C399.57 262.947 405.028 277.564 405.028 295.03C405.028 312.78 398.716 327.493 386.091 339.168C373.467 350.749 355.764 356.539 332.983 356.539C317.795 356.539 303.605 354.451 290.411 350.274C277.216 346.098 266.253 340.212 257.52 332.619L265.494 326.212C273.277 332.571 283.054 337.507 294.824 341.019C306.69 344.531 319.409 346.287 332.983 346.287C353.011 346.287 368.293 341.494 378.83 331.907C389.461 322.32 394.776 310.028 394.776 295.03C394.776 280.222 390.315 267.977 381.393 258.295C372.565 248.613 359.893 243.772 343.377 243.772H327.287C313.429 243.772 303.035 239.976 296.106 232.382C289.177 224.788 285.712 214.916 285.712 202.766C285.712 190.617 289.983 180.745 298.526 173.151C307.164 165.557 320.073 161.76 337.254 161.76C349.309 161.76 360.51 163.184 370.856 166.032C381.203 168.785 389.746 172.771 396.485 177.992L388.369 184.257C376.504 176.094 359.466 172.012 337.254 172.012C322.921 172.012 312.432 174.86 305.788 180.555C299.238 186.155 295.963 193.559 295.963 202.766C295.963 212.069 298.384 219.52 303.225 225.12C308.161 230.721 316.182 233.521 327.287 233.521H343.519ZM342.949 254.024C356.808 254.024 367.202 257.868 374.131 265.557C381.06 273.246 384.525 283.07 384.525 295.03C384.525 307.18 380.206 317.052 371.568 324.645C363.025 332.239 350.163 336.036 332.983 336.036C320.928 336.036 309.68 334.66 299.238 331.907C288.892 329.059 280.349 325.025 273.609 319.804L281.725 313.54C293.59 321.703 310.676 325.784 332.983 325.784C347.316 325.784 357.757 322.984 364.307 317.384C370.951 311.689 374.273 304.237 374.273 295.03C374.273 285.823 371.806 278.419 366.87 272.818C361.934 267.123 353.913 264.275 342.807 264.275H327.287C307.829 264.275 292.594 258.485 281.583 246.905C270.667 235.23 265.209 220.517 265.209 202.766C265.209 185.016 271.521 170.351 284.146 158.77C296.77 147.095 314.473 141.257 337.254 141.257C352.442 141.257 366.585 143.346 379.684 147.522C392.878 151.699 403.841 157.584 412.574 165.178L404.601 171.585C396.817 165.225 387.04 160.289 375.27 156.777C363.5 153.265 350.828 151.509 337.254 151.509C317.226 151.509 301.896 156.303 291.265 165.89C280.729 175.477 275.46 187.769 275.46 202.766C275.46 217.669 279.922 229.961 288.844 239.643C297.767 249.23 310.581 254.024 327.287 254.024H342.949ZM342.949 274.527C350.258 274.527 355.527 276.425 358.754 280.222C361.981 284.019 363.595 288.955 363.595 295.03C363.595 308.699 353.391 315.533 332.983 315.533C313.714 315.533 299.238 312.685 289.556 306.99L297.814 300.725C304.459 303.763 316.182 305.281 332.983 305.281C341.146 305.281 346.604 304.38 349.357 302.576C352.204 300.773 353.628 298.257 353.628 295.03C353.628 291.898 352.821 289.43 351.208 287.626C349.689 285.728 346.841 284.778 342.665 284.778H327.287C314.188 284.778 302.323 282.643 291.692 278.371C281.156 274.1 272.47 268.215 265.636 260.716C258.897 253.217 253.723 244.532 250.116 234.66C246.509 224.788 244.706 214.157 244.706 202.766C244.706 193.654 245.987 185.016 248.55 176.853C251.113 168.69 254.957 161.191 260.083 154.357C265.304 147.522 271.521 141.637 278.735 136.701C286.044 131.67 294.682 127.779 304.649 125.026C314.71 122.178 325.579 120.754 337.254 120.754C355.574 120.754 372.707 123.555 388.654 129.155C404.601 134.66 417.89 142.397 428.521 152.363L420.263 158.486C410.581 149.753 398.478 143.014 383.955 138.267C369.433 133.426 353.865 131.006 337.254 131.006C324.25 131.006 312.48 132.904 301.943 136.701C291.502 140.403 282.864 145.529 276.03 152.079C269.291 158.628 264.07 166.222 260.368 174.86C256.761 183.497 254.957 192.8 254.957 202.766C254.957 216.15 257.663 228.205 263.073 238.931C268.484 249.658 276.742 258.295 287.848 264.845C298.953 271.3 312.1 274.527 327.287 274.527H342.949ZM353.628 382.31L343.377 383.022V409.22H353.628V382.31ZM312.622 409.22H322.874V383.022L312.622 381.598V409.22ZM353.628 90H343.377V116.198L353.628 116.91V90ZM312.622 117.622L322.874 116.198V90H312.622V117.622Z" fill="#00FA00"/>
</g>
<defs>
<filter id="filter0_ddd_3_8" x="31" y="50" width="437.521" height="399.22" filterUnits="userSpaceOnUse" color-interpolation-filters="sRGB">
<feFlood flood-opacity="0" result="BackgroundImageFix"/>
<feColorMatrix in="SourceAlpha" type="matrix" values="0 0 0 0 0 0 0 0 0 0 0 0 0 0 0 0 0 0 127 0" result="hardAlpha"/>
<feOffset/>
<feGaussianBlur stdDeviation="20"/>
<feComposite in2="hardAlpha" operator="out"/>
<feColorMatrix type="matrix" values="0 0 0 0 0 0 0 0 0 0 0 0 0 0 0 0 0 0 0.25 0"/>
<feBlend mode="normal" in2="BackgroundImageFix" result="effect1_dropShadow_3_8"/>
<feColorMatrix in="SourceAlpha" type="matrix" values="0 0 0 0 0 0 0 0 0 0 0 0 0 0 0 0 0 0 127 0" result="hardAlpha"/>
<feOffset dy="4"/>
<feGaussianBlur stdDeviation="2"/>
<feComposite in2="hardAlpha" operator="out"/>
<feColorMatrix type="matrix" values="0 0 0 0 0 0 0 0 0 0 0 0 0 0 0 0 0 0 0.25 0"/>
<feBlend mode="normal" in2="effect1_dropShadow_3_8" result="effect2_dropShadow_3_8"/>
<feColorMatrix in="SourceAlpha" type="matrix" values="0 0 0 0 0 0 0 0 0 0 0 0 0 0 0 0 0 0 127 0" result="hardAlpha"/>
<feOffset dy="4"/>
<feGaussianBlur stdDeviation="2"/>
<feComposite in2="hardAlpha" operator="out"/>
<feColorMatrix type="matrix" values="0 0 0 0 0 0 0 0 0 0 0 0 0 0 0 0 0 0 0.25 0"/>
<feBlend mode="normal" in2="effect2_dropShadow_3_8" result="effect3_dropShadow_3_8"/>
<feBlend mode="normal" in="SourceGraphic" in2="effect3_dropShadow_3_8" result="shape"/>
</filter>
</defs>
</svg>
