<svg width="2000" height="500" viewBox="0 0 2000 500" fill="none" xmlns="http://www.w3.org/2000/svg">
<rect width="2000" height="500" fill="#151812"/>
<path d="M70 141.257V131.006H223.772V141.257H70ZM70 161.76V151.509H223.772V161.76H70ZM70 182.263V172.012H223.772V182.263H182.766V366.79H172.515V182.263H162.263V366.79H152.012V182.263H141.76V366.79H131.509V182.263H121.257V366.79H111.006V182.263H70Z" fill="#FFF8E5"/>
<path d="M330.132 209.031C319.121 220.042 313.615 233.331 313.615 248.898C313.615 264.465 319.121 277.754 330.132 288.765C341.143 299.776 354.432 305.281 369.999 305.281C385.566 305.281 398.855 299.776 409.866 288.765C420.877 277.754 426.382 264.465 426.382 248.898C426.382 233.331 420.877 220.042 409.866 209.031C398.855 198.02 385.566 192.515 369.999 192.515C354.432 192.515 341.143 198.02 330.132 209.031ZM308.632 274.812C305.12 266.554 303.364 257.916 303.364 248.898C303.364 239.881 305.12 231.29 308.632 223.127C312.144 214.869 316.89 207.75 322.87 201.77C328.85 195.79 335.922 191.044 344.085 187.532C352.343 184.02 360.981 182.263 369.999 182.263C379.016 182.263 387.607 184.02 395.77 187.532C404.028 191.044 411.147 195.79 417.127 201.77C423.107 207.75 427.853 214.869 431.365 223.127C434.877 231.29 436.633 239.881 436.633 248.898C436.633 257.916 434.877 266.554 431.365 274.812C427.853 282.975 423.107 290.047 417.127 296.027C411.147 302.007 404.028 306.753 395.77 310.265C387.607 313.777 379.016 315.533 369.999 315.533C360.981 315.533 352.343 313.777 344.085 310.265C335.922 306.753 328.85 302.007 322.87 296.027C316.89 290.047 312.144 282.975 308.632 274.812ZM303.364 210.313C296.53 222.083 293.112 234.945 293.112 248.898C293.112 262.852 296.53 275.713 303.364 287.484C310.293 299.254 319.643 308.604 331.413 315.533C343.183 322.367 356.045 325.784 369.999 325.784C383.952 325.784 396.814 322.367 408.584 315.533C420.354 308.604 429.657 299.254 436.491 287.484C443.42 275.713 446.885 262.852 446.885 248.898C446.885 234.945 443.42 222.083 436.491 210.313C429.657 198.542 420.354 189.24 408.584 182.406C396.814 175.477 383.952 172.012 369.999 172.012C356.045 172.012 343.183 175.477 331.413 182.406C319.643 189.24 310.293 198.542 303.364 210.313ZM294.536 292.609C286.753 279.226 282.861 264.655 282.861 248.898C282.861 233.141 286.753 218.571 294.536 205.187C302.32 191.803 312.904 181.219 326.287 173.436C339.671 165.652 354.242 161.76 369.999 161.76C385.756 161.76 400.326 165.652 413.71 173.436C427.094 181.219 437.678 191.803 445.461 205.187C453.245 218.571 457.136 233.141 457.136 248.898C457.136 264.655 453.245 279.226 445.461 292.609C437.678 305.993 427.094 316.577 413.71 324.361C400.326 332.144 385.756 336.036 369.999 336.036C354.242 336.036 339.671 332.144 326.287 324.361C312.904 316.577 302.32 305.993 294.536 292.609ZM280.298 211.025C275.172 223.08 272.609 235.704 272.609 248.898C272.609 262.092 275.172 274.717 280.298 286.772C285.424 298.827 292.306 309.221 300.943 317.953C309.676 326.591 320.07 333.473 332.125 338.599C344.18 343.725 356.805 346.287 369.999 346.287C383.193 346.287 395.817 343.725 407.872 338.599C419.927 333.473 430.274 326.591 438.912 317.953C447.644 309.221 454.574 298.827 459.699 286.772C464.825 274.717 467.388 262.092 467.388 248.898C467.388 235.704 464.825 223.08 459.699 211.025C454.574 198.97 447.644 188.623 438.912 179.985C430.274 171.253 419.927 164.323 407.872 159.198C395.817 154.072 383.193 151.509 369.999 151.509C356.805 151.509 344.18 154.072 332.125 159.198C320.07 164.323 309.676 171.253 300.943 179.985C292.306 188.623 285.424 198.97 280.298 211.025ZM276.739 302.861C267.152 286.345 262.358 268.357 262.358 248.898C262.358 229.439 267.152 211.452 276.739 194.935C286.421 178.419 299.52 165.368 316.036 155.78C332.552 146.098 350.54 141.257 369.999 141.257C389.458 141.257 407.445 146.098 423.961 155.78C440.478 165.368 453.529 178.419 463.116 194.935C472.798 211.452 477.639 229.439 477.639 248.898C477.639 268.357 472.798 286.345 463.116 302.861C453.529 319.377 440.478 332.476 423.961 342.158C407.445 351.745 389.458 356.539 369.999 356.539C350.54 356.539 332.552 351.745 316.036 342.158C299.52 332.476 286.421 319.377 276.739 302.861ZM261.361 203.194C255.191 217.717 252.106 232.951 252.106 248.898C252.106 264.845 255.191 280.127 261.361 294.745C267.626 309.268 276.027 321.798 286.563 332.334C297.099 342.87 309.629 351.271 324.152 357.536C338.77 363.706 354.052 366.79 369.999 366.79C385.945 366.79 401.18 363.706 415.703 357.536C430.321 351.271 442.898 342.87 453.435 332.334C463.971 321.798 472.324 309.268 478.494 294.745C484.759 280.127 487.891 264.845 487.891 248.898C487.891 232.951 484.759 217.717 478.494 203.194C472.324 188.576 463.971 175.999 453.435 165.462C442.898 154.926 430.321 146.573 415.703 140.403C401.18 134.138 385.945 131.006 369.999 131.006C354.052 131.006 338.77 134.138 324.152 140.403C309.629 146.573 297.099 154.926 286.563 165.462C276.027 175.999 267.626 188.576 261.361 203.194ZM251.964 298.732C245.225 282.88 241.855 266.269 241.855 248.898C241.855 231.528 245.225 214.964 251.964 199.207C258.798 183.355 267.911 169.734 279.301 158.343C290.787 146.858 304.408 137.745 320.165 131.006C336.017 124.172 352.628 120.754 369.999 120.754C387.369 120.754 403.933 124.172 419.69 131.006C435.542 137.745 449.163 146.858 460.554 158.343C472.039 169.734 481.152 183.355 487.891 199.207C494.725 214.964 498.142 231.528 498.142 248.898C498.142 266.269 494.725 282.88 487.891 298.732C481.152 314.489 472.039 328.11 460.554 339.596C449.163 350.986 435.542 360.051 419.69 366.79C403.933 373.625 387.369 377.042 369.999 377.042C352.628 377.042 336.017 373.625 320.165 366.79C304.408 360.051 290.787 350.986 279.301 339.596C267.911 328.11 258.798 314.489 251.964 298.732Z" fill="#FFF8E5"/>
<path d="M591.118 366.79H580.866V131.006H591.118V366.79ZM570.615 366.79H560.363V131.006H570.615V366.79ZM550.112 366.79H539.86V131.006H550.112V366.79ZM529.609 366.79H519.357V131.006H529.609V366.79ZM666.011 248.898L726.238 131.006H737.629L677.401 248.898L737.629 366.79H726.238L666.011 248.898ZM643.087 248.898L703.315 131.006H714.705L654.478 248.898L714.705 366.79H703.315L643.087 248.898ZM620.164 248.898L680.391 131.006H691.782L631.554 248.898L691.782 366.79H680.391L620.164 248.898ZM597.098 248.898L657.468 131.006H668.858L608.488 248.898L668.858 366.79H657.468L597.098 248.898Z" fill="#FFF8E5"/>
<path d="M808.677 366.79H798.426V131.006H808.677V366.79ZM788.174 366.79H777.923V131.006H788.174V366.79ZM767.671 366.79H757.42V131.006H767.671V366.79ZM829.18 315.533H938.245V325.784H829.18V336.036H938.245V346.287H829.18V356.539H938.245V366.79H818.929V131.006H938.245V141.257H829.18V151.509H938.245V161.76H829.18V172.012H938.245V182.263H829.18V223.269H885.137V233.521H829.18V243.772H885.137V254.024H829.18V264.275H885.137V274.527H829.18V315.533Z" fill="#FFF8E5"/>
<path d="M1131.03 253.312L1120.78 236.369V131.006H1131.03V253.312ZM1151.53 286.914L1141.28 269.686V131.006H1151.53V286.914ZM1172.04 320.943L1161.78 303.573V131.006H1172.04V320.943ZM1025.1 244.484L1035.35 261.428V366.79H1025.1V244.484ZM1004.59 210.882L1014.85 228.11V366.79H1004.59V210.882ZM984.092 176.853L994.343 194.224V366.79H984.092V176.853ZM987.651 131.006H999.612L1144.56 366.79H1132.6L987.651 131.006ZM1011.86 131.006H1023.96L1168.76 366.79H1156.52L1011.86 131.006ZM1035.92 131.006H1047.88L1182.29 350.132V131.006H1192.54V366.79C1192.54 366.79 1188.51 366.79 1180.44 366.79L1035.92 131.006ZM973.84 147.665V366.79H963.589V131.006C963.589 131.006 967.671 131.006 975.834 131.006L1120.35 366.79H1108.53L973.84 147.665Z" fill="#FFF8E5"/>
<path d="M1298.76 223.269C1291.45 223.269 1286.18 221.419 1282.95 217.717C1279.72 213.92 1278.11 208.936 1278.11 202.766C1278.11 189.098 1288.31 182.263 1308.72 182.263C1327.9 182.263 1342.32 185.111 1352.01 190.806L1343.75 197.071C1337.1 194.034 1325.43 192.515 1308.72 192.515C1300.56 192.515 1295.05 193.417 1292.21 195.22C1289.45 197.024 1288.08 199.539 1288.08 202.766C1288.08 205.994 1288.84 208.509 1290.36 210.313C1291.87 212.116 1294.67 213.018 1298.76 213.018H1316.41C1329.23 213.018 1340.76 215.201 1351.01 219.568C1361.36 223.934 1369.85 229.914 1376.5 237.508C1383.14 245.006 1388.22 253.692 1391.73 263.564C1395.24 273.34 1397 283.829 1397 295.03C1397 304.142 1395.72 312.78 1393.16 320.943C1390.59 329.107 1386.7 336.605 1381.48 343.44C1376.35 350.274 1370.14 356.207 1362.83 361.238C1355.61 366.173 1346.98 370.018 1336.91 372.771C1326.95 375.618 1316.13 377.042 1304.45 377.042C1286.13 377.042 1268.95 374.242 1252.91 368.641C1236.96 363.136 1223.67 355.4 1213.04 345.433L1221.3 339.311C1230.98 348.044 1243.08 354.83 1257.61 359.671C1272.23 364.417 1287.84 366.79 1304.45 366.79C1317.46 366.79 1329.18 364.939 1339.62 361.238C1350.16 357.441 1358.79 352.267 1365.53 345.718C1372.37 339.168 1377.59 331.575 1381.2 322.937C1384.9 314.299 1386.75 304.997 1386.75 295.03C1386.75 281.836 1384.09 269.923 1378.77 259.292C1373.46 248.566 1365.34 239.881 1354.43 233.236C1343.61 226.592 1330.79 223.269 1315.98 223.269H1298.76ZM1314.99 233.521C1334.26 233.521 1349.3 239.406 1360.12 251.176C1371.04 262.947 1376.5 277.564 1376.5 295.03C1376.5 312.78 1370.18 327.493 1357.56 339.168C1344.94 350.749 1327.23 356.539 1304.45 356.539C1289.26 356.539 1275.07 354.451 1261.88 350.274C1248.68 346.098 1237.72 340.212 1228.99 332.619L1236.96 326.212C1244.75 332.571 1254.52 337.507 1266.29 341.019C1278.16 344.531 1290.88 346.287 1304.45 346.287C1324.48 346.287 1339.76 341.494 1350.3 331.907C1360.93 322.32 1366.24 310.028 1366.24 295.03C1366.24 280.222 1361.78 267.977 1352.86 258.295C1344.03 248.613 1331.36 243.772 1314.85 243.772H1298.76C1284.9 243.772 1274.5 239.976 1267.57 232.382C1260.65 224.788 1257.18 214.916 1257.18 202.766C1257.18 190.617 1261.45 180.745 1269.99 173.151C1278.63 165.557 1291.54 161.76 1308.72 161.76C1320.78 161.76 1331.98 163.184 1342.32 166.032C1352.67 168.785 1361.21 172.771 1367.95 177.992L1359.84 184.257C1347.97 176.094 1330.93 172.012 1308.72 172.012C1294.39 172.012 1283.9 174.86 1277.26 180.555C1270.71 186.155 1267.43 193.559 1267.43 202.766C1267.43 212.069 1269.85 219.52 1274.69 225.12C1279.63 230.721 1287.65 233.521 1298.76 233.521H1314.99ZM1314.42 254.024C1328.28 254.024 1338.67 257.868 1345.6 265.557C1352.53 273.246 1355.99 283.07 1355.99 295.03C1355.99 307.18 1351.67 317.052 1343.04 324.645C1334.49 332.239 1321.63 336.036 1304.45 336.036C1292.4 336.036 1281.15 334.66 1270.71 331.907C1260.36 329.059 1251.82 325.025 1245.08 319.804L1253.19 313.54C1265.06 321.703 1282.14 325.784 1304.45 325.784C1318.78 325.784 1329.23 322.984 1335.78 317.384C1342.42 311.689 1345.74 304.237 1345.74 295.03C1345.74 285.823 1343.27 278.419 1338.34 272.818C1333.4 267.123 1325.38 264.275 1314.28 264.275H1298.76C1279.3 264.275 1264.06 258.485 1253.05 246.905C1242.14 235.23 1236.68 220.517 1236.68 202.766C1236.68 185.016 1242.99 170.351 1255.61 158.77C1268.24 147.095 1285.94 141.257 1308.72 141.257C1323.91 141.257 1338.05 143.346 1351.15 147.522C1364.35 151.699 1375.31 157.584 1384.04 165.178L1376.07 171.585C1368.29 165.225 1358.51 160.289 1346.74 156.777C1334.97 153.265 1322.3 151.509 1308.72 151.509C1288.69 151.509 1273.36 156.303 1262.73 165.89C1252.2 175.477 1246.93 187.769 1246.93 202.766C1246.93 217.669 1251.39 229.961 1260.31 239.643C1269.24 249.23 1282.05 254.024 1298.76 254.024H1314.42ZM1314.42 274.527C1321.73 274.527 1327 276.425 1330.22 280.222C1333.45 284.019 1335.06 288.955 1335.06 295.03C1335.06 308.699 1324.86 315.533 1304.45 315.533C1285.18 315.533 1270.71 312.685 1261.02 306.99L1269.28 300.725C1275.93 303.763 1287.65 305.281 1304.45 305.281C1312.61 305.281 1318.07 304.38 1320.83 302.576C1323.67 300.773 1325.1 298.257 1325.1 295.03C1325.1 291.898 1324.29 289.43 1322.68 287.626C1321.16 285.728 1318.31 284.778 1314.13 284.778H1298.76C1285.66 284.778 1273.79 282.643 1263.16 278.371C1252.62 274.1 1243.94 268.215 1237.1 260.716C1230.37 253.217 1225.19 244.532 1221.58 234.66C1217.98 224.788 1216.17 214.157 1216.17 202.766C1216.17 193.654 1217.46 185.016 1220.02 176.853C1222.58 168.69 1226.43 161.191 1231.55 154.357C1236.77 147.522 1242.99 141.637 1250.2 136.701C1257.51 131.67 1266.15 127.779 1276.12 125.026C1286.18 122.178 1297.05 120.754 1308.72 120.754C1327.04 120.754 1344.18 123.555 1360.12 129.155C1376.07 134.66 1389.36 142.397 1399.99 152.363L1391.73 158.486C1382.05 149.753 1369.95 143.014 1355.42 138.267C1340.9 133.426 1325.33 131.006 1308.72 131.006C1295.72 131.006 1283.95 132.904 1273.41 136.701C1262.97 140.403 1254.33 145.529 1247.5 152.079C1240.76 158.628 1235.54 166.222 1231.84 174.86C1228.23 183.497 1226.43 192.8 1226.43 202.766C1226.43 216.15 1229.13 228.205 1234.54 238.931C1239.95 249.658 1248.21 258.295 1259.32 264.845C1270.42 271.3 1283.57 274.527 1298.76 274.527H1314.42ZM1325.1 382.31L1314.85 383.022V409.22H1325.1V382.31ZM1284.09 409.22H1294.34V383.022L1284.09 381.598V409.22ZM1325.1 90H1314.85V116.198L1325.1 116.91V90ZM1284.09 117.622L1294.34 116.198V90H1284.09V117.622Z" fill="#00FA00"/>
<path d="M1645.31 131.006H1655.57V366.79H1645.31V131.006ZM1419.78 131.006H1430.03V366.79H1419.78V131.006ZM1624.81 131.006H1635.06V366.79H1624.81V131.006ZM1604.31 131.006H1614.56V366.79H1604.31V131.006ZM1583.8 131.006H1594.06V366.79H1583.8V274.385H1491.54V366.79H1481.29V131.006H1491.54V223.127H1583.8V131.006ZM1460.79 131.006H1471.04V366.79H1460.79V131.006ZM1440.28 131.006H1450.54V366.79H1440.28V131.006ZM1583.8 264.133V253.882H1491.54V264.133H1583.8ZM1583.8 243.63V233.379H1491.54V243.63H1583.8Z" fill="#FFF8E5"/>
<path d="M1744.13 131.006H1754.38V366.79H1744.13V131.006ZM1723.62 131.006H1733.88V366.79H1723.62V131.006ZM1703.12 131.006H1713.37V366.79H1703.12V131.006ZM1682.62 131.006H1692.87V366.79H1682.62V131.006Z" fill="#FFF8E5"/>
<path d="M1776.87 141.257V131.006H1930.65V141.257H1776.87ZM1776.87 161.76V151.509H1930.65V161.76H1776.87ZM1776.87 182.263V172.012H1930.65V182.263H1889.64V366.79H1879.39V182.263H1869.14V366.79H1858.89V182.263H1848.64V366.79H1838.38V182.263H1828.13V366.79H1817.88V182.263H1776.87Z" fill="#FFF8E5"/>
</svg>
