<svg width="400" height="400" viewBox="0 0 400 400" fill="none" xmlns="http://www.w3.org/2000/svg">
<g filter="url(#filter0_d_2_10)">
<path d="M43.625 99V90H178.625V99H43.625ZM43.625 117V108H178.625V117H43.625ZM43.625 135V126H178.625V135H142.625V297H133.625V135H124.625V297H115.625V135H106.625V297H97.625V135H88.625V297H79.625V135H43.625Z" fill="#E2F2D7"/>
</g>
<g filter="url(#filter1_d_2_10)">
<path d="M43.625 99V90H178.625V99H43.625ZM43.625 117V108H178.625V117H43.625ZM43.625 135V126H178.625V135H142.625V297H133.625V135H124.625V297H115.625V135H106.625V297H97.625V135H88.625V297H79.625V135H43.625Z" fill="#E2F2D7"/>
</g>
<g filter="url(#filter2_d_2_10)">
<path d="M43.625 99V90H178.625V99H43.625ZM43.625 117V108H178.625V117H43.625ZM43.625 135V126H178.625V135H142.625V297H133.625V135H124.625V297H115.625V135H106.625V297H97.625V135H88.625V297H79.625V135H43.625Z" fill="#E2F2D7"/>
</g>
<g filter="url(#filter3_d_2_10)">
<path d="M43.625 99V90H178.625V99H43.625ZM43.625 117V108H178.625V117H43.625ZM43.625 135V126H178.625V135H142.625V297H133.625V135H124.625V297H115.625V135H106.625V297H97.625V135H88.625V297H79.625V135H43.625Z" fill="#E2F2D7"/>
</g>
<g filter="url(#filter4_d_2_10)">
<path d="M43.625 99V90H178.625V99H43.625ZM43.625 117V108H178.625V117H43.625ZM43.625 135V126H178.625V135H142.625V297H133.625V135H124.625V297H115.625V135H106.625V297H97.625V135H88.625V297H79.625V135H43.625Z" fill="#E2F2D7"/>
</g>
<g filter="url(#filter5_d_2_10)">
<path d="M43.625 99V90H178.625V99H43.625ZM43.625 117V108H178.625V117H43.625ZM43.625 135V126H178.625V135H142.625V297H133.625V135H124.625V297H115.625V135H106.625V297H97.625V135H88.625V297H79.625V135H43.625Z" fill="#E2F2D7"/>
</g>
<g filter="url(#filter6_d_2_10)">
<path d="M269.125 171C262.708 171 258.083 169.375 255.25 166.125C252.417 162.792 251 158.417 251 153C251 141 259.958 135 277.875 135C294.708 135 307.375 137.5 315.875 142.5L308.625 148C302.792 145.333 292.542 144 277.875 144C270.708 144 265.875 144.792 263.375 146.375C260.958 147.958 259.75 150.167 259.75 153C259.75 155.833 260.417 158.042 261.75 159.625C263.083 161.208 265.542 162 269.125 162H284.625C295.875 162 306 163.917 315 167.75C324.083 171.583 331.542 176.833 337.375 183.5C343.208 190.083 347.667 197.708 350.75 206.375C353.833 214.958 355.375 224.167 355.375 234C355.375 242 354.25 249.583 352 256.75C349.75 263.917 346.333 270.5 341.75 276.5C337.25 282.5 331.792 287.708 325.375 292.125C319.042 296.458 311.458 299.833 302.625 302.25C293.875 304.75 284.375 306 274.125 306C258.042 306 242.958 303.542 228.875 298.625C214.875 293.792 203.208 287 193.875 278.25L201.125 272.875C209.625 280.542 220.25 286.5 233 290.75C245.833 294.917 259.542 297 274.125 297C285.542 297 295.833 295.375 305 292.125C314.25 288.792 321.833 284.25 327.75 278.5C333.75 272.75 338.333 266.083 341.5 258.5C344.75 250.917 346.375 242.75 346.375 234C346.375 222.417 344.042 211.958 339.375 202.625C334.708 193.208 327.583 185.583 318 179.75C308.5 173.917 297.25 171 284.25 171H269.125ZM283.375 180C300.292 180 313.5 185.167 323 195.5C332.583 205.833 337.375 218.667 337.375 234C337.375 249.583 331.833 262.5 320.75 272.75C309.667 282.917 294.125 288 274.125 288C260.792 288 248.333 286.167 236.75 282.5C225.167 278.833 215.542 273.667 207.875 267L214.875 261.375C221.708 266.958 230.292 271.292 240.625 274.375C251.042 277.458 262.208 279 274.125 279C291.708 279 305.125 274.792 314.375 266.375C323.708 257.958 328.375 247.167 328.375 234C328.375 221 324.458 210.25 316.625 201.75C308.875 193.25 297.75 189 283.25 189H269.125C256.958 189 247.833 185.667 241.75 179C235.667 172.333 232.625 163.667 232.625 153C232.625 142.333 236.375 133.667 243.875 127C251.458 120.333 262.792 117 277.875 117C288.458 117 298.292 118.25 307.375 120.75C316.458 123.167 323.958 126.667 329.875 131.25L322.75 136.75C312.333 129.583 297.375 126 277.875 126C265.292 126 256.083 128.5 250.25 133.5C244.5 138.417 241.625 144.917 241.625 153C241.625 161.167 243.75 167.708 248 172.625C252.333 177.542 259.375 180 269.125 180H283.375ZM282.875 198C295.042 198 304.167 201.375 310.25 208.125C316.333 214.875 319.375 223.5 319.375 234C319.375 244.667 315.583 253.333 308 260C300.5 266.667 289.208 270 274.125 270C263.542 270 253.667 268.792 244.5 266.375C235.417 263.875 227.917 260.333 222 255.75L229.125 250.25C239.542 257.417 254.542 261 274.125 261C286.708 261 295.875 258.542 301.625 253.625C307.458 248.625 310.375 242.083 310.375 234C310.375 225.917 308.208 219.417 303.875 214.5C299.542 209.5 292.5 207 282.75 207H269.125C252.042 207 238.667 201.917 229 191.75C219.417 181.5 214.625 168.583 214.625 153C214.625 137.417 220.167 124.542 231.25 114.375C242.333 104.125 257.875 99 277.875 99C291.208 99 303.625 100.833 315.125 104.5C326.708 108.167 336.333 113.333 344 120L337 125.625C330.167 120.042 321.583 115.708 311.25 112.625C300.917 109.542 289.792 108 277.875 108C260.292 108 246.833 112.208 237.5 120.625C228.25 129.042 223.625 139.833 223.625 153C223.625 166.083 227.542 176.875 235.375 185.375C243.208 193.792 254.458 198 269.125 198H282.875ZM282.875 216C289.292 216 293.917 217.667 296.75 221C299.583 224.333 301 228.667 301 234C301 246 292.042 252 274.125 252C257.208 252 244.5 249.5 236 244.5L243.25 239C249.083 241.667 259.375 243 274.125 243C281.292 243 286.083 242.208 288.5 240.625C291 239.042 292.25 236.833 292.25 234C292.25 231.25 291.542 229.083 290.125 227.5C288.792 225.833 286.292 225 282.625 225H269.125C257.625 225 247.208 223.125 237.875 219.375C228.625 215.625 221 210.458 215 203.875C209.083 197.292 204.542 189.667 201.375 181C198.208 172.333 196.625 163 196.625 153C196.625 145 197.75 137.417 200 130.25C202.25 123.083 205.625 116.5 210.125 110.5C214.708 104.5 220.167 99.3333 226.5 95C232.917 90.5833 240.5 87.1667 249.25 84.75C258.083 82.25 267.625 81 277.875 81C293.958 81 309 83.4583 323 88.375C337 93.2083 348.667 100 358 108.75L350.75 114.125C342.25 106.458 331.625 100.542 318.875 96.375C306.125 92.125 292.458 90 277.875 90C266.458 90 256.125 91.6667 246.875 95C237.708 98.25 230.125 102.75 224.125 108.5C218.208 114.25 213.625 120.917 210.375 128.5C207.208 136.083 205.625 144.25 205.625 153C205.625 164.75 208 175.333 212.75 184.75C217.5 194.167 224.75 201.75 234.5 207.5C244.25 213.167 255.792 216 269.125 216H282.875ZM292.25 310.625L283.25 311.25V334.25H292.25V310.625ZM256.25 334.25H265.25V311.25L256.25 310V334.25ZM292.25 54H283.25V77L292.25 77.625V54ZM256.25 78.25L265.25 77V54H256.25V78.25Z" fill="#05FD05"/>
</g>
<g filter="url(#filter7_d_2_10)">
<path d="M269.125 171C262.708 171 258.083 169.375 255.25 166.125C252.417 162.792 251 158.417 251 153C251 141 259.958 135 277.875 135C294.708 135 307.375 137.5 315.875 142.5L308.625 148C302.792 145.333 292.542 144 277.875 144C270.708 144 265.875 144.792 263.375 146.375C260.958 147.958 259.75 150.167 259.75 153C259.75 155.833 260.417 158.042 261.75 159.625C263.083 161.208 265.542 162 269.125 162H284.625C295.875 162 306 163.917 315 167.75C324.083 171.583 331.542 176.833 337.375 183.5C343.208 190.083 347.667 197.708 350.75 206.375C353.833 214.958 355.375 224.167 355.375 234C355.375 242 354.25 249.583 352 256.75C349.75 263.917 346.333 270.5 341.75 276.5C337.25 282.5 331.792 287.708 325.375 292.125C319.042 296.458 311.458 299.833 302.625 302.25C293.875 304.75 284.375 306 274.125 306C258.042 306 242.958 303.542 228.875 298.625C214.875 293.792 203.208 287 193.875 278.25L201.125 272.875C209.625 280.542 220.25 286.5 233 290.75C245.833 294.917 259.542 297 274.125 297C285.542 297 295.833 295.375 305 292.125C314.25 288.792 321.833 284.25 327.75 278.5C333.75 272.75 338.333 266.083 341.5 258.5C344.75 250.917 346.375 242.75 346.375 234C346.375 222.417 344.042 211.958 339.375 202.625C334.708 193.208 327.583 185.583 318 179.75C308.5 173.917 297.25 171 284.25 171H269.125ZM283.375 180C300.292 180 313.5 185.167 323 195.5C332.583 205.833 337.375 218.667 337.375 234C337.375 249.583 331.833 262.5 320.75 272.75C309.667 282.917 294.125 288 274.125 288C260.792 288 248.333 286.167 236.75 282.5C225.167 278.833 215.542 273.667 207.875 267L214.875 261.375C221.708 266.958 230.292 271.292 240.625 274.375C251.042 277.458 262.208 279 274.125 279C291.708 279 305.125 274.792 314.375 266.375C323.708 257.958 328.375 247.167 328.375 234C328.375 221 324.458 210.25 316.625 201.75C308.875 193.25 297.75 189 283.25 189H269.125C256.958 189 247.833 185.667 241.75 179C235.667 172.333 232.625 163.667 232.625 153C232.625 142.333 236.375 133.667 243.875 127C251.458 120.333 262.792 117 277.875 117C288.458 117 298.292 118.25 307.375 120.75C316.458 123.167 323.958 126.667 329.875 131.25L322.75 136.75C312.333 129.583 297.375 126 277.875 126C265.292 126 256.083 128.5 250.25 133.5C244.5 138.417 241.625 144.917 241.625 153C241.625 161.167 243.75 167.708 248 172.625C252.333 177.542 259.375 180 269.125 180H283.375ZM282.875 198C295.042 198 304.167 201.375 310.25 208.125C316.333 214.875 319.375 223.5 319.375 234C319.375 244.667 315.583 253.333 308 260C300.5 266.667 289.208 270 274.125 270C263.542 270 253.667 268.792 244.5 266.375C235.417 263.875 227.917 260.333 222 255.75L229.125 250.25C239.542 257.417 254.542 261 274.125 261C286.708 261 295.875 258.542 301.625 253.625C307.458 248.625 310.375 242.083 310.375 234C310.375 225.917 308.208 219.417 303.875 214.5C299.542 209.5 292.5 207 282.75 207H269.125C252.042 207 238.667 201.917 229 191.75C219.417 181.5 214.625 168.583 214.625 153C214.625 137.417 220.167 124.542 231.25 114.375C242.333 104.125 257.875 99 277.875 99C291.208 99 303.625 100.833 315.125 104.5C326.708 108.167 336.333 113.333 344 120L337 125.625C330.167 120.042 321.583 115.708 311.25 112.625C300.917 109.542 289.792 108 277.875 108C260.292 108 246.833 112.208 237.5 120.625C228.25 129.042 223.625 139.833 223.625 153C223.625 166.083 227.542 176.875 235.375 185.375C243.208 193.792 254.458 198 269.125 198H282.875ZM282.875 216C289.292 216 293.917 217.667 296.75 221C299.583 224.333 301 228.667 301 234C301 246 292.042 252 274.125 252C257.208 252 244.5 249.5 236 244.5L243.25 239C249.083 241.667 259.375 243 274.125 243C281.292 243 286.083 242.208 288.5 240.625C291 239.042 292.25 236.833 292.25 234C292.25 231.25 291.542 229.083 290.125 227.5C288.792 225.833 286.292 225 282.625 225H269.125C257.625 225 247.208 223.125 237.875 219.375C228.625 215.625 221 210.458 215 203.875C209.083 197.292 204.542 189.667 201.375 181C198.208 172.333 196.625 163 196.625 153C196.625 145 197.75 137.417 200 130.25C202.25 123.083 205.625 116.5 210.125 110.5C214.708 104.5 220.167 99.3333 226.5 95C232.917 90.5833 240.5 87.1667 249.25 84.75C258.083 82.25 267.625 81 277.875 81C293.958 81 309 83.4583 323 88.375C337 93.2083 348.667 100 358 108.75L350.75 114.125C342.25 106.458 331.625 100.542 318.875 96.375C306.125 92.125 292.458 90 277.875 90C266.458 90 256.125 91.6667 246.875 95C237.708 98.25 230.125 102.75 224.125 108.5C218.208 114.25 213.625 120.917 210.375 128.5C207.208 136.083 205.625 144.25 205.625 153C205.625 164.75 208 175.333 212.75 184.75C217.5 194.167 224.75 201.75 234.5 207.5C244.25 213.167 255.792 216 269.125 216H282.875ZM292.25 310.625L283.25 311.25V334.25H292.25V310.625ZM256.25 334.25H265.25V311.25L256.25 310V334.25ZM292.25 54H283.25V77L292.25 77.625V54ZM256.25 78.25L265.25 77V54H256.25V78.25Z" fill="#05FD05"/>
</g>
<g filter="url(#filter8_d_2_10)">
<path d="M269.125 171C262.708 171 258.083 169.375 255.25 166.125C252.417 162.792 251 158.417 251 153C251 141 259.958 135 277.875 135C294.708 135 307.375 137.5 315.875 142.5L308.625 148C302.792 145.333 292.542 144 277.875 144C270.708 144 265.875 144.792 263.375 146.375C260.958 147.958 259.75 150.167 259.75 153C259.75 155.833 260.417 158.042 261.75 159.625C263.083 161.208 265.542 162 269.125 162H284.625C295.875 162 306 163.917 315 167.75C324.083 171.583 331.542 176.833 337.375 183.5C343.208 190.083 347.667 197.708 350.75 206.375C353.833 214.958 355.375 224.167 355.375 234C355.375 242 354.25 249.583 352 256.75C349.75 263.917 346.333 270.5 341.75 276.5C337.25 282.5 331.792 287.708 325.375 292.125C319.042 296.458 311.458 299.833 302.625 302.25C293.875 304.75 284.375 306 274.125 306C258.042 306 242.958 303.542 228.875 298.625C214.875 293.792 203.208 287 193.875 278.25L201.125 272.875C209.625 280.542 220.25 286.5 233 290.75C245.833 294.917 259.542 297 274.125 297C285.542 297 295.833 295.375 305 292.125C314.25 288.792 321.833 284.25 327.75 278.5C333.75 272.75 338.333 266.083 341.5 258.5C344.75 250.917 346.375 242.75 346.375 234C346.375 222.417 344.042 211.958 339.375 202.625C334.708 193.208 327.583 185.583 318 179.75C308.5 173.917 297.25 171 284.25 171H269.125ZM283.375 180C300.292 180 313.5 185.167 323 195.5C332.583 205.833 337.375 218.667 337.375 234C337.375 249.583 331.833 262.5 320.75 272.75C309.667 282.917 294.125 288 274.125 288C260.792 288 248.333 286.167 236.75 282.5C225.167 278.833 215.542 273.667 207.875 267L214.875 261.375C221.708 266.958 230.292 271.292 240.625 274.375C251.042 277.458 262.208 279 274.125 279C291.708 279 305.125 274.792 314.375 266.375C323.708 257.958 328.375 247.167 328.375 234C328.375 221 324.458 210.25 316.625 201.75C308.875 193.25 297.75 189 283.25 189H269.125C256.958 189 247.833 185.667 241.75 179C235.667 172.333 232.625 163.667 232.625 153C232.625 142.333 236.375 133.667 243.875 127C251.458 120.333 262.792 117 277.875 117C288.458 117 298.292 118.25 307.375 120.75C316.458 123.167 323.958 126.667 329.875 131.25L322.75 136.75C312.333 129.583 297.375 126 277.875 126C265.292 126 256.083 128.5 250.25 133.5C244.5 138.417 241.625 144.917 241.625 153C241.625 161.167 243.75 167.708 248 172.625C252.333 177.542 259.375 180 269.125 180H283.375ZM282.875 198C295.042 198 304.167 201.375 310.25 208.125C316.333 214.875 319.375 223.5 319.375 234C319.375 244.667 315.583 253.333 308 260C300.5 266.667 289.208 270 274.125 270C263.542 270 253.667 268.792 244.5 266.375C235.417 263.875 227.917 260.333 222 255.75L229.125 250.25C239.542 257.417 254.542 261 274.125 261C286.708 261 295.875 258.542 301.625 253.625C307.458 248.625 310.375 242.083 310.375 234C310.375 225.917 308.208 219.417 303.875 214.5C299.542 209.5 292.5 207 282.75 207H269.125C252.042 207 238.667 201.917 229 191.75C219.417 181.5 214.625 168.583 214.625 153C214.625 137.417 220.167 124.542 231.25 114.375C242.333 104.125 257.875 99 277.875 99C291.208 99 303.625 100.833 315.125 104.5C326.708 108.167 336.333 113.333 344 120L337 125.625C330.167 120.042 321.583 115.708 311.25 112.625C300.917 109.542 289.792 108 277.875 108C260.292 108 246.833 112.208 237.5 120.625C228.25 129.042 223.625 139.833 223.625 153C223.625 166.083 227.542 176.875 235.375 185.375C243.208 193.792 254.458 198 269.125 198H282.875ZM282.875 216C289.292 216 293.917 217.667 296.75 221C299.583 224.333 301 228.667 301 234C301 246 292.042 252 274.125 252C257.208 252 244.5 249.5 236 244.5L243.25 239C249.083 241.667 259.375 243 274.125 243C281.292 243 286.083 242.208 288.5 240.625C291 239.042 292.25 236.833 292.25 234C292.25 231.25 291.542 229.083 290.125 227.5C288.792 225.833 286.292 225 282.625 225H269.125C257.625 225 247.208 223.125 237.875 219.375C228.625 215.625 221 210.458 215 203.875C209.083 197.292 204.542 189.667 201.375 181C198.208 172.333 196.625 163 196.625 153C196.625 145 197.75 137.417 200 130.25C202.25 123.083 205.625 116.5 210.125 110.5C214.708 104.5 220.167 99.3333 226.5 95C232.917 90.5833 240.5 87.1667 249.25 84.75C258.083 82.25 267.625 81 277.875 81C293.958 81 309 83.4583 323 88.375C337 93.2083 348.667 100 358 108.75L350.75 114.125C342.25 106.458 331.625 100.542 318.875 96.375C306.125 92.125 292.458 90 277.875 90C266.458 90 256.125 91.6667 246.875 95C237.708 98.25 230.125 102.75 224.125 108.5C218.208 114.25 213.625 120.917 210.375 128.5C207.208 136.083 205.625 144.25 205.625 153C205.625 164.75 208 175.333 212.75 184.75C217.5 194.167 224.75 201.75 234.5 207.5C244.25 213.167 255.792 216 269.125 216H282.875ZM292.25 310.625L283.25 311.25V334.25H292.25V310.625ZM256.25 334.25H265.25V311.25L256.25 310V334.25ZM292.25 54H283.25V77L292.25 77.625V54ZM256.25 78.25L265.25 77V54H256.25V78.25Z" fill="#05FD05"/>
</g>
<g filter="url(#filter9_d_2_10)">
<path d="M269.125 171C262.708 171 258.083 169.375 255.25 166.125C252.417 162.792 251 158.417 251 153C251 141 259.958 135 277.875 135C294.708 135 307.375 137.5 315.875 142.5L308.625 148C302.792 145.333 292.542 144 277.875 144C270.708 144 265.875 144.792 263.375 146.375C260.958 147.958 259.75 150.167 259.75 153C259.75 155.833 260.417 158.042 261.75 159.625C263.083 161.208 265.542 162 269.125 162H284.625C295.875 162 306 163.917 315 167.75C324.083 171.583 331.542 176.833 337.375 183.5C343.208 190.083 347.667 197.708 350.75 206.375C353.833 214.958 355.375 224.167 355.375 234C355.375 242 354.25 249.583 352 256.75C349.75 263.917 346.333 270.5 341.75 276.5C337.25 282.5 331.792 287.708 325.375 292.125C319.042 296.458 311.458 299.833 302.625 302.25C293.875 304.75 284.375 306 274.125 306C258.042 306 242.958 303.542 228.875 298.625C214.875 293.792 203.208 287 193.875 278.25L201.125 272.875C209.625 280.542 220.25 286.5 233 290.75C245.833 294.917 259.542 297 274.125 297C285.542 297 295.833 295.375 305 292.125C314.25 288.792 321.833 284.25 327.75 278.5C333.75 272.75 338.333 266.083 341.5 258.5C344.75 250.917 346.375 242.75 346.375 234C346.375 222.417 344.042 211.958 339.375 202.625C334.708 193.208 327.583 185.583 318 179.75C308.5 173.917 297.25 171 284.25 171H269.125ZM283.375 180C300.292 180 313.5 185.167 323 195.5C332.583 205.833 337.375 218.667 337.375 234C337.375 249.583 331.833 262.5 320.75 272.75C309.667 282.917 294.125 288 274.125 288C260.792 288 248.333 286.167 236.75 282.5C225.167 278.833 215.542 273.667 207.875 267L214.875 261.375C221.708 266.958 230.292 271.292 240.625 274.375C251.042 277.458 262.208 279 274.125 279C291.708 279 305.125 274.792 314.375 266.375C323.708 257.958 328.375 247.167 328.375 234C328.375 221 324.458 210.25 316.625 201.75C308.875 193.25 297.75 189 283.25 189H269.125C256.958 189 247.833 185.667 241.75 179C235.667 172.333 232.625 163.667 232.625 153C232.625 142.333 236.375 133.667 243.875 127C251.458 120.333 262.792 117 277.875 117C288.458 117 298.292 118.25 307.375 120.75C316.458 123.167 323.958 126.667 329.875 131.25L322.75 136.75C312.333 129.583 297.375 126 277.875 126C265.292 126 256.083 128.5 250.25 133.5C244.5 138.417 241.625 144.917 241.625 153C241.625 161.167 243.75 167.708 248 172.625C252.333 177.542 259.375 180 269.125 180H283.375ZM282.875 198C295.042 198 304.167 201.375 310.25 208.125C316.333 214.875 319.375 223.5 319.375 234C319.375 244.667 315.583 253.333 308 260C300.5 266.667 289.208 270 274.125 270C263.542 270 253.667 268.792 244.5 266.375C235.417 263.875 227.917 260.333 222 255.75L229.125 250.25C239.542 257.417 254.542 261 274.125 261C286.708 261 295.875 258.542 301.625 253.625C307.458 248.625 310.375 242.083 310.375 234C310.375 225.917 308.208 219.417 303.875 214.5C299.542 209.5 292.5 207 282.75 207H269.125C252.042 207 238.667 201.917 229 191.75C219.417 181.5 214.625 168.583 214.625 153C214.625 137.417 220.167 124.542 231.25 114.375C242.333 104.125 257.875 99 277.875 99C291.208 99 303.625 100.833 315.125 104.5C326.708 108.167 336.333 113.333 344 120L337 125.625C330.167 120.042 321.583 115.708 311.25 112.625C300.917 109.542 289.792 108 277.875 108C260.292 108 246.833 112.208 237.5 120.625C228.25 129.042 223.625 139.833 223.625 153C223.625 166.083 227.542 176.875 235.375 185.375C243.208 193.792 254.458 198 269.125 198H282.875ZM282.875 216C289.292 216 293.917 217.667 296.75 221C299.583 224.333 301 228.667 301 234C301 246 292.042 252 274.125 252C257.208 252 244.5 249.5 236 244.5L243.25 239C249.083 241.667 259.375 243 274.125 243C281.292 243 286.083 242.208 288.5 240.625C291 239.042 292.25 236.833 292.25 234C292.25 231.25 291.542 229.083 290.125 227.5C288.792 225.833 286.292 225 282.625 225H269.125C257.625 225 247.208 223.125 237.875 219.375C228.625 215.625 221 210.458 215 203.875C209.083 197.292 204.542 189.667 201.375 181C198.208 172.333 196.625 163 196.625 153C196.625 145 197.75 137.417 200 130.25C202.25 123.083 205.625 116.5 210.125 110.5C214.708 104.5 220.167 99.3333 226.5 95C232.917 90.5833 240.5 87.1667 249.25 84.75C258.083 82.25 267.625 81 277.875 81C293.958 81 309 83.4583 323 88.375C337 93.2083 348.667 100 358 108.75L350.75 114.125C342.25 106.458 331.625 100.542 318.875 96.375C306.125 92.125 292.458 90 277.875 90C266.458 90 256.125 91.6667 246.875 95C237.708 98.25 230.125 102.75 224.125 108.5C218.208 114.25 213.625 120.917 210.375 128.5C207.208 136.083 205.625 144.25 205.625 153C205.625 164.75 208 175.333 212.75 184.75C217.5 194.167 224.75 201.75 234.5 207.5C244.25 213.167 255.792 216 269.125 216H282.875ZM292.25 310.625L283.25 311.25V334.25H292.25V310.625ZM256.25 334.25H265.25V311.25L256.25 310V334.25ZM292.25 54H283.25V77L292.25 77.625V54ZM256.25 78.25L265.25 77V54H256.25V78.25Z" fill="#05FD05"/>
</g>
<g filter="url(#filter10_d_2_10)">
<path d="M269.125 171C262.708 171 258.083 169.375 255.25 166.125C252.417 162.792 251 158.417 251 153C251 141 259.958 135 277.875 135C294.708 135 307.375 137.5 315.875 142.5L308.625 148C302.792 145.333 292.542 144 277.875 144C270.708 144 265.875 144.792 263.375 146.375C260.958 147.958 259.75 150.167 259.75 153C259.75 155.833 260.417 158.042 261.75 159.625C263.083 161.208 265.542 162 269.125 162H284.625C295.875 162 306 163.917 315 167.75C324.083 171.583 331.542 176.833 337.375 183.5C343.208 190.083 347.667 197.708 350.75 206.375C353.833 214.958 355.375 224.167 355.375 234C355.375 242 354.25 249.583 352 256.75C349.75 263.917 346.333 270.5 341.75 276.5C337.25 282.5 331.792 287.708 325.375 292.125C319.042 296.458 311.458 299.833 302.625 302.25C293.875 304.75 284.375 306 274.125 306C258.042 306 242.958 303.542 228.875 298.625C214.875 293.792 203.208 287 193.875 278.25L201.125 272.875C209.625 280.542 220.25 286.5 233 290.75C245.833 294.917 259.542 297 274.125 297C285.542 297 295.833 295.375 305 292.125C314.25 288.792 321.833 284.25 327.75 278.5C333.75 272.75 338.333 266.083 341.5 258.5C344.75 250.917 346.375 242.75 346.375 234C346.375 222.417 344.042 211.958 339.375 202.625C334.708 193.208 327.583 185.583 318 179.75C308.5 173.917 297.25 171 284.25 171H269.125ZM283.375 180C300.292 180 313.5 185.167 323 195.5C332.583 205.833 337.375 218.667 337.375 234C337.375 249.583 331.833 262.5 320.75 272.75C309.667 282.917 294.125 288 274.125 288C260.792 288 248.333 286.167 236.75 282.5C225.167 278.833 215.542 273.667 207.875 267L214.875 261.375C221.708 266.958 230.292 271.292 240.625 274.375C251.042 277.458 262.208 279 274.125 279C291.708 279 305.125 274.792 314.375 266.375C323.708 257.958 328.375 247.167 328.375 234C328.375 221 324.458 210.25 316.625 201.75C308.875 193.25 297.75 189 283.25 189H269.125C256.958 189 247.833 185.667 241.75 179C235.667 172.333 232.625 163.667 232.625 153C232.625 142.333 236.375 133.667 243.875 127C251.458 120.333 262.792 117 277.875 117C288.458 117 298.292 118.25 307.375 120.75C316.458 123.167 323.958 126.667 329.875 131.25L322.75 136.75C312.333 129.583 297.375 126 277.875 126C265.292 126 256.083 128.5 250.25 133.5C244.5 138.417 241.625 144.917 241.625 153C241.625 161.167 243.75 167.708 248 172.625C252.333 177.542 259.375 180 269.125 180H283.375ZM282.875 198C295.042 198 304.167 201.375 310.25 208.125C316.333 214.875 319.375 223.5 319.375 234C319.375 244.667 315.583 253.333 308 260C300.5 266.667 289.208 270 274.125 270C263.542 270 253.667 268.792 244.5 266.375C235.417 263.875 227.917 260.333 222 255.75L229.125 250.25C239.542 257.417 254.542 261 274.125 261C286.708 261 295.875 258.542 301.625 253.625C307.458 248.625 310.375 242.083 310.375 234C310.375 225.917 308.208 219.417 303.875 214.5C299.542 209.5 292.5 207 282.75 207H269.125C252.042 207 238.667 201.917 229 191.75C219.417 181.5 214.625 168.583 214.625 153C214.625 137.417 220.167 124.542 231.25 114.375C242.333 104.125 257.875 99 277.875 99C291.208 99 303.625 100.833 315.125 104.5C326.708 108.167 336.333 113.333 344 120L337 125.625C330.167 120.042 321.583 115.708 311.25 112.625C300.917 109.542 289.792 108 277.875 108C260.292 108 246.833 112.208 237.5 120.625C228.25 129.042 223.625 139.833 223.625 153C223.625 166.083 227.542 176.875 235.375 185.375C243.208 193.792 254.458 198 269.125 198H282.875ZM282.875 216C289.292 216 293.917 217.667 296.75 221C299.583 224.333 301 228.667 301 234C301 246 292.042 252 274.125 252C257.208 252 244.5 249.5 236 244.5L243.25 239C249.083 241.667 259.375 243 274.125 243C281.292 243 286.083 242.208 288.5 240.625C291 239.042 292.25 236.833 292.25 234C292.25 231.25 291.542 229.083 290.125 227.5C288.792 225.833 286.292 225 282.625 225H269.125C257.625 225 247.208 223.125 237.875 219.375C228.625 215.625 221 210.458 215 203.875C209.083 197.292 204.542 189.667 201.375 181C198.208 172.333 196.625 163 196.625 153C196.625 145 197.75 137.417 200 130.25C202.25 123.083 205.625 116.5 210.125 110.5C214.708 104.5 220.167 99.3333 226.5 95C232.917 90.5833 240.5 87.1667 249.25 84.75C258.083 82.25 267.625 81 277.875 81C293.958 81 309 83.4583 323 88.375C337 93.2083 348.667 100 358 108.75L350.75 114.125C342.25 106.458 331.625 100.542 318.875 96.375C306.125 92.125 292.458 90 277.875 90C266.458 90 256.125 91.6667 246.875 95C237.708 98.25 230.125 102.75 224.125 108.5C218.208 114.25 213.625 120.917 210.375 128.5C207.208 136.083 205.625 144.25 205.625 153C205.625 164.75 208 175.333 212.75 184.75C217.5 194.167 224.75 201.75 234.5 207.5C244.25 213.167 255.792 216 269.125 216H282.875ZM292.25 310.625L283.25 311.25V334.25H292.25V310.625ZM256.25 334.25H265.25V311.25L256.25 310V334.25ZM292.25 54H283.25V77L292.25 77.625V54ZM256.25 78.25L265.25 77V54H256.25V78.25Z" fill="#05FD05"/>
</g>
<defs>
<filter id="filter0_d_2_10" x="3.625" y="54" width="215" height="287" filterUnits="userSpaceOnUse" color-interpolation-filters="sRGB">
<feFlood flood-opacity="0" result="BackgroundImageFix"/>
<feColorMatrix in="SourceAlpha" type="matrix" values="0 0 0 0 0 0 0 0 0 0 0 0 0 0 0 0 0 0 127 0" result="hardAlpha"/>
<feOffset dy="4"/>
<feGaussianBlur stdDeviation="20"/>
<feComposite in2="hardAlpha" operator="out"/>
<feColorMatrix type="matrix" values="0 0 0 0 0.886275 0 0 0 0 0.94902 0 0 0 0 0.843137 0 0 0 0.5 0"/>
<feBlend mode="normal" in2="BackgroundImageFix" result="effect1_dropShadow_2_10"/>
<feBlend mode="normal" in="SourceGraphic" in2="effect1_dropShadow_2_10" result="shape"/>
</filter>
<filter id="filter1_d_2_10" x="3.625" y="54" width="215" height="287" filterUnits="userSpaceOnUse" color-interpolation-filters="sRGB">
<feFlood flood-opacity="0" result="BackgroundImageFix"/>
<feColorMatrix in="SourceAlpha" type="matrix" values="0 0 0 0 0 0 0 0 0 0 0 0 0 0 0 0 0 0 127 0" result="hardAlpha"/>
<feOffset dy="4"/>
<feGaussianBlur stdDeviation="20"/>
<feComposite in2="hardAlpha" operator="out"/>
<feColorMatrix type="matrix" values="0 0 0 0 0.886275 0 0 0 0 0.94902 0 0 0 0 0.843137 0 0 0 0.5 0"/>
<feBlend mode="normal" in2="BackgroundImageFix" result="effect1_dropShadow_2_10"/>
<feBlend mode="normal" in="SourceGraphic" in2="effect1_dropShadow_2_10" result="shape"/>
</filter>
<filter id="filter2_d_2_10" x="3.625" y="54" width="215" height="287" filterUnits="userSpaceOnUse" color-interpolation-filters="sRGB">
<feFlood flood-opacity="0" result="BackgroundImageFix"/>
<feColorMatrix in="SourceAlpha" type="matrix" values="0 0 0 0 0 0 0 0 0 0 0 0 0 0 0 0 0 0 127 0" result="hardAlpha"/>
<feOffset dy="4"/>
<feGaussianBlur stdDeviation="20"/>
<feComposite in2="hardAlpha" operator="out"/>
<feColorMatrix type="matrix" values="0 0 0 0 0.886275 0 0 0 0 0.94902 0 0 0 0 0.843137 0 0 0 0.5 0"/>
<feBlend mode="normal" in2="BackgroundImageFix" result="effect1_dropShadow_2_10"/>
<feBlend mode="normal" in="SourceGraphic" in2="effect1_dropShadow_2_10" result="shape"/>
</filter>
<filter id="filter3_d_2_10" x="3.625" y="54" width="215" height="287" filterUnits="userSpaceOnUse" color-interpolation-filters="sRGB">
<feFlood flood-opacity="0" result="BackgroundImageFix"/>
<feColorMatrix in="SourceAlpha" type="matrix" values="0 0 0 0 0 0 0 0 0 0 0 0 0 0 0 0 0 0 127 0" result="hardAlpha"/>
<feOffset dy="4"/>
<feGaussianBlur stdDeviation="20"/>
<feComposite in2="hardAlpha" operator="out"/>
<feColorMatrix type="matrix" values="0 0 0 0 0.886275 0 0 0 0 0.94902 0 0 0 0 0.843137 0 0 0 0.5 0"/>
<feBlend mode="normal" in2="BackgroundImageFix" result="effect1_dropShadow_2_10"/>
<feBlend mode="normal" in="SourceGraphic" in2="effect1_dropShadow_2_10" result="shape"/>
</filter>
<filter id="filter4_d_2_10" x="3.625" y="54" width="215" height="287" filterUnits="userSpaceOnUse" color-interpolation-filters="sRGB">
<feFlood flood-opacity="0" result="BackgroundImageFix"/>
<feColorMatrix in="SourceAlpha" type="matrix" values="0 0 0 0 0 0 0 0 0 0 0 0 0 0 0 0 0 0 127 0" result="hardAlpha"/>
<feOffset dy="4"/>
<feGaussianBlur stdDeviation="20"/>
<feComposite in2="hardAlpha" operator="out"/>
<feColorMatrix type="matrix" values="0 0 0 0 0.886275 0 0 0 0 0.94902 0 0 0 0 0.843137 0 0 0 0.5 0"/>
<feBlend mode="normal" in2="BackgroundImageFix" result="effect1_dropShadow_2_10"/>
<feBlend mode="normal" in="SourceGraphic" in2="effect1_dropShadow_2_10" result="shape"/>
</filter>
<filter id="filter5_d_2_10" x="3.625" y="54" width="215" height="287" filterUnits="userSpaceOnUse" color-interpolation-filters="sRGB">
<feFlood flood-opacity="0" result="BackgroundImageFix"/>
<feColorMatrix in="SourceAlpha" type="matrix" values="0 0 0 0 0 0 0 0 0 0 0 0 0 0 0 0 0 0 127 0" result="hardAlpha"/>
<feOffset dy="4"/>
<feGaussianBlur stdDeviation="20"/>
<feComposite in2="hardAlpha" operator="out"/>
<feColorMatrix type="matrix" values="0 0 0 0 0.886275 0 0 0 0 0.94902 0 0 0 0 0.843137 0 0 0 0.5 0"/>
<feBlend mode="normal" in2="BackgroundImageFix" result="effect1_dropShadow_2_10"/>
<feBlend mode="normal" in="SourceGraphic" in2="effect1_dropShadow_2_10" result="shape"/>
</filter>
<filter id="filter6_d_2_10" x="153.875" y="18" width="244.125" height="360.25" filterUnits="userSpaceOnUse" color-interpolation-filters="sRGB">
<feFlood flood-opacity="0" result="BackgroundImageFix"/>
<feColorMatrix in="SourceAlpha" type="matrix" values="0 0 0 0 0 0 0 0 0 0 0 0 0 0 0 0 0 0 127 0" result="hardAlpha"/>
<feOffset dy="4"/>
<feGaussianBlur stdDeviation="20"/>
<feComposite in2="hardAlpha" operator="out"/>
<feColorMatrix type="matrix" values="0 0 0 0 0.0196078 0 0 0 0 0.992157 0 0 0 0 0.0196078 0 0 0 0.5 0"/>
<feBlend mode="normal" in2="BackgroundImageFix" result="effect1_dropShadow_2_10"/>
<feBlend mode="normal" in="SourceGraphic" in2="effect1_dropShadow_2_10" result="shape"/>
</filter>
<filter id="filter7_d_2_10" x="153.875" y="18" width="244.125" height="360.25" filterUnits="userSpaceOnUse" color-interpolation-filters="sRGB">
<feFlood flood-opacity="0" result="BackgroundImageFix"/>
<feColorMatrix in="SourceAlpha" type="matrix" values="0 0 0 0 0 0 0 0 0 0 0 0 0 0 0 0 0 0 127 0" result="hardAlpha"/>
<feOffset dy="4"/>
<feGaussianBlur stdDeviation="20"/>
<feComposite in2="hardAlpha" operator="out"/>
<feColorMatrix type="matrix" values="0 0 0 0 0.0196078 0 0 0 0 0.992157 0 0 0 0 0.0196078 0 0 0 0.5 0"/>
<feBlend mode="normal" in2="BackgroundImageFix" result="effect1_dropShadow_2_10"/>
<feBlend mode="normal" in="SourceGraphic" in2="effect1_dropShadow_2_10" result="shape"/>
</filter>
<filter id="filter8_d_2_10" x="153.875" y="18" width="244.125" height="360.25" filterUnits="userSpaceOnUse" color-interpolation-filters="sRGB">
<feFlood flood-opacity="0" result="BackgroundImageFix"/>
<feColorMatrix in="SourceAlpha" type="matrix" values="0 0 0 0 0 0 0 0 0 0 0 0 0 0 0 0 0 0 127 0" result="hardAlpha"/>
<feOffset dy="4"/>
<feGaussianBlur stdDeviation="20"/>
<feComposite in2="hardAlpha" operator="out"/>
<feColorMatrix type="matrix" values="0 0 0 0 0.0196078 0 0 0 0 0.992157 0 0 0 0 0.0196078 0 0 0 0.5 0"/>
<feBlend mode="normal" in2="BackgroundImageFix" result="effect1_dropShadow_2_10"/>
<feBlend mode="normal" in="SourceGraphic" in2="effect1_dropShadow_2_10" result="shape"/>
</filter>
<filter id="filter9_d_2_10" x="153.875" y="18" width="244.125" height="360.25" filterUnits="userSpaceOnUse" color-interpolation-filters="sRGB">
<feFlood flood-opacity="0" result="BackgroundImageFix"/>
<feColorMatrix in="SourceAlpha" type="matrix" values="0 0 0 0 0 0 0 0 0 0 0 0 0 0 0 0 0 0 127 0" result="hardAlpha"/>
<feOffset dy="4"/>
<feGaussianBlur stdDeviation="20"/>
<feComposite in2="hardAlpha" operator="out"/>
<feColorMatrix type="matrix" values="0 0 0 0 0.0196078 0 0 0 0 0.992157 0 0 0 0 0.0196078 0 0 0 0.5 0"/>
<feBlend mode="normal" in2="BackgroundImageFix" result="effect1_dropShadow_2_10"/>
<feBlend mode="normal" in="SourceGraphic" in2="effect1_dropShadow_2_10" result="shape"/>
</filter>
<filter id="filter10_d_2_10" x="153.875" y="18" width="244.125" height="360.25" filterUnits="userSpaceOnUse" color-interpolation-filters="sRGB">
<feFlood flood-opacity="0" result="BackgroundImageFix"/>
<feColorMatrix in="SourceAlpha" type="matrix" values="0 0 0 0 0 0 0 0 0 0 0 0 0 0 0 0 0 0 127 0" result="hardAlpha"/>
<feOffset dy="4"/>
<feGaussianBlur stdDeviation="20"/>
<feComposite in2="hardAlpha" operator="out"/>
<feColorMatrix type="matrix" values="0 0 0 0 0.0196078 0 0 0 0 0.992157 0 0 0 0 0.0196078 0 0 0 0.5 0"/>
<feBlend mode="normal" in2="BackgroundImageFix" result="effect1_dropShadow_2_10"/>
<feBlend mode="normal" in="SourceGraphic" in2="effect1_dropShadow_2_10" result="shape"/>
</filter>
</defs>
</svg>
